<svg width="182.7" height="43" viewBox="0 0 182.7 43" fill="none" xmlns="http://www.w3.org/2000/svg">
  <style>
    .st0{fill:#33295E;}
    .st1{fill:#F26A60;}
  </style>
  <g id="full-rgb">
    <g id="type">
      <path class="st0" d="M69.5,8.8c-3.3,0.1-6.2,2-7.6,4.9V9.3h-5.9V43h6.1V31.8c0,0,1.5,4.6,8.4,4.6c6,0,11.1-5.5,11.1-13.7C81.6,14.6,76.5,8.8,69.5,8.8 M68.6,30.4c-3.7,0-6.5-2.8-6.5-7.6c0-4.9,2.8-7.9,6.5-7.9c3.8,0,6.4,3.2,6.4,7.9C75,27.5,72.4,30.4,68.6,30.4"/>
      <path class="st0" d="M19.4,0v12.6c-2-3.1-4.5-3.7-7.2-3.7C5.1,8.9,0,14.4,0,22.7s5.1,13.8,12.2,13.8c2.7,0,6.5-1.8,7.6-4.9v4.7h5.9V0H19.4z M13.1,30.4c-3.8,0-6.5-2.9-6.5-7.7s2.6-7.8,6.5-7.8c3.7,0,6.5,2.8,6.5,7.7C19.7,27.6,16.9,30.4,13.1,30.4"/>
      <path class="st0" d="M100.4,26.2c0,2.6-2,4.2-5.1,4.2c-2.4,0-5-1.1-5-5.2V9.3h-5.9v17.1c0,5.5,2.9,10,9.2,10c3.2,0,6.7-2.5,7.2-4.6v4.4h5.6V9.3h-6.1V26.2z"/>
      <path class="st0" d="M114.7,3.9c0,0-0.3,5.4-5.1,5.4V15h2.9v13.7c0,5.4,2.5,7.8,7.3,7.8c1.6,0,3.2-0.2,4.8-0.7v-6.2c-1.1,0.5-2.4,0.8-3.6,0.8c-1.3,0-2.4-0.6-2.4-2.3V15h9.4l6.2,20.4l-2.9,7.6h6.3l12.2-33.7h-6.5l-5.7,17.5L132,9.3h-13.4V3.9H114.7z"/>
      <path class="st0" d="M35.1,19.8h11.7c-0.2-3.4-2-5.4-5.4-5.4C37.9,14.4,35.5,16.6,35.1,19.8 M42.2,36.5c-7.6,0-13.7-5.2-13.7-13.6c0-9,5.8-14.1,12.9-14.1c6.3,0,11.6,3.9,11.6,13.7c0,0.7-0.1,1.4-0.1,2.1H35c0.3,3.9,3.8,5.8,8.2,5.8c5.7,0,8.6-2,8.6-2l0,5.8C51.9,34.2,48.6,36.5,42.2,36.5"/>
    </g>
    <g id="logoMark">
      <path class="st1" d="M169,17.4C169,17.4,169,17.4,169,17.4c-0.3,0.5-0.4,0.9-0.6,1.3l-3.6,12.1h5.2l3.1-10.7c0.1-0.5,0.6-0.7,1.1-0.6c0.2,0,0.3,0.1,0.4,0.3l5.2,5.5l2.7-4.6l-4-4.2c-2.1-2.5-5.8-2.8-8.3-0.7C169.8,16.3,169.4,16.8,169,17.4"/>
      <path class="st1" d="M165.6,15.4C165.5,15.4,165.5,15.4,165.6,15.4c-0.3-0.5-0.5-0.8-0.9-1.2L156,5.1l-2.7,4.4l7.8,8.2c0.3,0.3,0.3,0.9,0,1.2c-0.1,0.1-0.3,0.2-0.4,0.2l-7.4,1.7l2.7,4.6l5.6-1.4c3.2-0.6,5.3-3.6,4.7-6.8C166.1,16.6,165.9,16,165.6,15.4"/>
      <path class="st1" d="M169,13.5L169,13.5c0.5,0,1-0.1,1.4-0.2l12.3-3l-2.4-4.6l-11,2.7c-0.5,0.1-0.9-0.2-1-0.6c0-0.2,0-0.3,0-0.5l2.2-7.2l-5.3,0l-1.6,5.5c-1.1,3.1,0.5,6.4,3.6,7.5C167.7,13.3,168.3,13.4,169,13.5"/>
    </g>
  </g>
</svg>