<svg width="29.5" height="30.8" viewBox="0 0 29.5 30.8" fill="none" xmlns="http://www.w3.org/2000/svg">
  <style>
    .st0{fill:#F26A60;}
  </style>
  <g id="full-rgb">
    <g id="logoMark">
      <path class="st0" d="M15.8,17.3C15.8,17.3,15.8,17.4,15.8,17.3c-0.3,0.5-0.4,0.9-0.6,1.3l-3.6,12.1h5.2
			l3.1-10.7c0.1-0.5,0.6-0.7,1.1-0.6c0.2,0,0.3,0.1,0.4,0.3l5.2,5.5l2.7-4.6l-4-4.2c-2.1-2.5-5.8-2.8-8.3-0.7
			C16.6,16.3,16.2,16.8,15.8,17.3">
      </path>
      <path class="st0" d="M12.3,15.4C12.3,15.3,12.3,15.3,12.3,15.4c-0.3-0.5-0.5-0.8-0.9-1.2L2.8,5L0,9.5
			l7.8,8.2c0.3,0.3,0.3,0.9,0,1.2c-0.1,0.1-0.3,0.2-0.4,0.2L0,20.8l2.7,4.6L8.3,24c3.2-0.6,5.3-3.6,4.7-6.8
			C12.9,16.6,12.7,15.9,12.3,15.4">
      </path>
      <path class="st0" d="M15.8,13.4L15.8,13.4c0.5,0,1-0.1,1.4-0.2l12.3-3L27,5.7L16,8.4
			c-0.5,0.1-0.9-0.2-1-0.6c0-0.2,0-0.3,0-0.5L17.2,0l-5.3,0l-1.6,5.5c-1.1,3.1,0.5,6.4,3.6,7.5C14.5,13.3,15.1,13.4,15.8,13.4">
      </path>
    </g>
  </g>
</svg>